<?xml version="1.0" encoding="utf-8"?>
<!-- Generator: Adobe Illustrator 24.1.2, SVG Export Plug-In . SVG Version: 6.00 Build 0)  -->
<svg version="1.1" id="Layer_1" xmlns="http://www.w3.org/2000/svg" xmlns:xlink="http://www.w3.org/1999/xlink" x="0px" y="0px"
	 viewBox="0 0 44 44" style="enable-background:new 0 0 44 44;" xml:space="preserve">
<style type="text/css">
	.st0{fill-rule:evenodd;clip-rule:evenodd;fill:#717171;}
</style>
<path class="st0" d="M9.4,37.5c0.1,0.1,2.5,3.5,10.1,3.5c9.8,0,11.3-3.6,11.4-4.1c0-0.1,0-0.2,0-0.3c0-0.1,0-0.2,0-0.3
	c0-0.2,0-0.3,0-0.5c1.2-0.1,3.6-0.6,5.3-2.3c1.4-1.4,2-3.2,2-5.4c0-5.4-4.7-7.1-7.3-7.3c0,0,0,0,0,0c0-0.7,0-1.2-0.1-1.4
	c-0.4-2.3-8.7-3.2-11.4-3.1c-2.4,0-10.2,0.3-10.4,2.8c0,0.3,0,0.7,0.4,1.1c1.7,1.8,11.2,1.7,14,1.7c0.5,0,0.9-0.4,0.9-0.9
	c0-0.5-0.4-0.9-0.9-0.9h0c-5,0.1-10.8-0.3-12.4-0.9c1.2-0.6,5-1.1,8.4-1.1c3.9,0,8.8,1.1,9.7,1.8c0.1,1.4,0,10.7-0.1,16.6
	c-0.3,0.5-2.1,2.8-9.7,2.8c-5.7,0-8-2-8.5-2.6l0-13.2c0-0.5-0.4-0.9-0.9-0.9h0c-0.5,0-0.9,0.4-0.9,0.9l0,13.5
	C9.3,37.2,9.3,37.4,9.4,37.5z M31.1,33.7c0-0.3,0-0.7,0-1c0.6-0.1,1.9-0.3,2.9-1.3c0.8-0.8,1.2-1.8,1.2-3.1c0-1.3-0.4-2.3-1.2-3
	c-0.9-0.9-2.2-1-2.8-1l0,0c0-0.6,0-1.2,0-1.7c0.8,0.1,5.5,0.7,5.5,5.5c0,4.8-4,5.8-5.6,6C31.1,34,31.1,33.9,31.1,33.7z M31.1,31
	c0-1.6,0-3.3,0-4.9c0.4,0,1.2,0.1,1.7,0.6c0.4,0.4,0.6,0.9,0.6,1.7C33.5,30.5,31.9,30.9,31.1,31L31.1,31z M13.6,14.7
	c-0.4,0-0.7-0.2-0.8-0.6c-0.2-0.5,0.1-1,0.5-1.1l0,0c0,0,0.9-0.4,1-1.1c0.1-0.8-0.1-1-0.6-1.4l0,0c-0.4-0.4-1-0.9-1.2-1.8
	C12.2,7.1,13.3,6,14,5.7c0.4-0.2,1,0,1.2,0.4c0.2,0.4,0,0.9-0.4,1.2c-0.1,0.1-0.7,0.4-0.6,1.2c0.1,0.3,0.2,0.5,0.6,0.8
	c0.6,0.5,1.5,1.2,1.2,2.9c-0.2,1.4-1.4,2.2-2.1,2.5C13.8,14.7,13.7,14.7,13.6,14.7z M25.2,14.2c0.1,0.4,0.5,0.6,0.8,0.6
	c0.1,0,0.2,0,0.3-0.1c0.7-0.3,1.9-1.1,2.1-2.5c0.2-1.7-0.6-2.5-1.2-2.9l0,0c-0.4-0.3-0.6-0.5-0.6-0.8c-0.1-0.8,0.5-1.2,0.6-1.2
	c0.4-0.2,0.6-0.7,0.4-1.2c-0.2-0.4-0.7-0.6-1.2-0.4c-0.7,0.3-1.8,1.4-1.5,3.1c0.2,0.9,0.8,1.4,1.2,1.8c0.5,0.4,0.7,0.6,0.6,1.4
	c-0.1,0.7-1,1.1-1,1.1l0,0C25.3,13.2,25,13.7,25.2,14.2z M21,15.6L21,15.6c0.5,0,0.9-0.4,0.9-0.8c0-0.5-0.3-0.9-0.8-0.9
	c-0.3,0-1-0.2-1-1.4c0-0.6,0.2-0.8,0.8-1.3c0.5-0.4,1.3-1,1.3-2.3c0-1-0.6-1.6-1-2c-0.4-0.4-0.7-0.7-0.8-1.5c0-0.6,0.3-0.8,0.4-0.9
	c0.4-0.2,0.7-0.6,0.5-1.1c-0.2-0.5-0.6-0.7-1.1-0.6c-0.6,0.2-1.6,1-1.5,2.6c0.1,1.4,0.8,2.1,1.3,2.6l0,0c0.4,0.4,0.5,0.5,0.5,0.7
	c0,0.4-0.2,0.5-0.6,0.9l0,0c-0.6,0.5-1.4,1.2-1.4,2.6C18.4,14.7,19.9,15.6,21,15.6z"/>
</svg>
