<?xml version="1.0" encoding="utf-8"?>
<!-- Generator: Adobe Illustrator 24.1.2, SVG Export Plug-In . SVG Version: 6.00 Build 0)  -->
<svg version="1.1" id="Layer_1" xmlns="http://www.w3.org/2000/svg" xmlns:xlink="http://www.w3.org/1999/xlink" x="0px" y="0px"
	 viewBox="0 0 44 44" style="enable-background:new 0 0 44 44;" xml:space="preserve">
<style type="text/css">
	.st0{fill:#418613;}
	.st1{fill:none;}
</style>
<g>
	<path class="st0" d="M8.9,30.3h25.8c1.4,0,2.5-1.1,2.5-2.6v-0.4c0-1.4-1.2-2.6-2.6-2.6H8.9c-1.4,0-2.6,1.2-2.6,2.6v0.4
		C6.3,29.1,7.5,30.3,8.9,30.3z M8.3,27.4c0-0.3,0.2-0.6,0.6-0.6h25.7c0.3,0,0.6,0.2,0.6,0.6v0.4c0,0.3-0.2,0.6-0.6,0.6H8.9
		c-0.3,0-0.6-0.2-0.6-0.6V27.4z"/>
	<path class="st0" d="M9.3,18.5h25.5c1.6,0,2.7-1.1,3-3c0-1.8-1-4.5-3.8-6.8C31.9,7,28.1,5,22.2,5c-5.9,0-9.7,2-11.8,3.6
		c-2.8,2.3-3.8,5-3.8,6.8C6.6,17.2,7.7,18.5,9.3,18.5z M11.7,10.4c1.8-1.5,5-3.2,10.4-3.2c5.3,0,8.6,1.8,10.5,3.2c2.1,1.7,3,3.7,3,5
		c0,0.5-0.1,1.1-0.7,1.1H9.4c-0.5,0-0.7-0.6-0.7-1.1C8.7,14.1,9.7,12,11.7,10.4z"/>
	<path class="st0" d="M7,23.6c1.4,0,2.2-0.8,2.6-1.3c0.1-0.1,0.1-0.1,0.2-0.2c0.3-0.3,0.5-0.5,0.9-0.5c0.3,0,0.6,0.3,1,0.7
		c0.5,0.5,1.3,1.3,2.6,1.3c1.3,0,2-0.7,2.5-1.2l0.1-0.1c0.1-0.1,0.1-0.1,0.2-0.2c0.3-0.3,0.5-0.5,0.9-0.5c0.3,0,0.6,0.3,1,0.7
		c0.5,0.5,1.3,1.3,2.6,1.3c1.4,0,2-0.7,2.5-1.2l0.1-0.1c0.4-0.4,0.7-0.7,1-0.7c0.3,0,0.6,0.3,1,0.7c0.5,0.5,1.3,1.3,2.6,1.3
		c1.3,0,2-0.7,2.5-1.2l0.1-0.1c0.1-0.1,0.1-0.1,0.2-0.2c0.3-0.3,0.5-0.5,0.9-0.5c0.3,0,0.6,0.3,1,0.7c0.5,0.5,1.3,1.3,2.6,1.3
		c0.5,0,1-0.5,1-1c0-0.5-0.5-1-1-1c-0.3,0-0.6-0.3-1-0.7c-0.6-0.9-1.5-1.3-2.7-1.3c-1.3,0-2,0.7-2.5,1.2l-0.1,0.1
		c-0.4,0.4-0.7,0.7-1,0.7s-0.6-0.3-1-0.7c-0.5-0.5-1.3-1.3-2.6-1.3c-1.3,0-2,0.7-2.5,1.2l-0.1,0.1c-0.1,0.1-0.1,0.1-0.2,0.2
		c-0.3,0.3-0.5,0.5-0.9,0.5c-0.3,0-0.6-0.3-1-0.7c-0.5-0.5-1.3-1.3-2.6-1.3c-1.3,0-2,0.7-2.5,1.2l-0.1,0.1c-0.4,0.4-0.7,0.7-1,0.7
		c-0.3,0-0.6-0.3-1-0.7c-0.5-0.5-1.3-1.3-2.6-1.3c-1.3,0-2,0.7-2.5,1.2L8,20.9C8,21,7.9,21.1,7.8,21.1c-0.3,0.3-0.5,0.5-0.9,0.5
		c-0.5,0-1,0.5-1,1C6,23.1,6.5,23.6,7,23.6z"/>
	<path class="st0" d="M34.3,31.6H9.6c-1.5,0-3.1,1-3.1,2.8c0,1.6,0.3,2.7,1,3.5c0.8,0.8,1.7,1.1,3,1.1h23c1,0,2-0.3,3-1
		c1-1,1.2-2.5,1-3.5C37.4,32.8,35.8,31.6,34.3,31.6z M34.8,36.5c-0.2,0.2-0.6,0.5-1.5,0.5H10.5c-0.7,0-1.1-0.1-1.4-0.5
		c-0.5-0.6-0.5-1.5-0.5-1.9c0-0.7,0.8-0.8,1.1-0.8h24.7c0,0,1,0,1.1,0.8C35.4,35,35.4,35.9,34.8,36.5z"/>
</g>
<rect class="st1" width="44" height="44"/>
</svg>
