<?xml version="1.0" encoding="utf-8"?>
<!-- Generator: Adobe Illustrator 24.1.2, SVG Export Plug-In . SVG Version: 6.00 Build 0)  -->
<svg version="1.1" id="Layer_1" xmlns="http://www.w3.org/2000/svg" xmlns:xlink="http://www.w3.org/1999/xlink" x="0px" y="0px"
	 viewBox="0 0 44 44" style="enable-background:new 0 0 44 44;" xml:space="preserve">
<style type="text/css">
	.st0{fill-rule:evenodd;clip-rule:evenodd;fill:#418613;}
	.st1{fill:none;}
</style>
<path class="st0" d="M9.6,5.3c0.8-0.4,1.8-0.1,2.5,0.6c0.1,0.1,0.1,0.1,0.3,0.3l0.4,0.4c0,0,0.1,0,0.3,0h0.1h0.1l0,0
	c1-1.1,2.6-1.8,4-1c1,0.4,1.6,1.5,1.8,2.5c0.1,1.1-0.3,2.3-1,3.3L18,11.6l0.1,0.1c0.3,0.6,0.6,1.1,0.7,1.8l0.1,0.4l0.1,0.6l0.4,2.9
	l0.7,4.1l0.1,0.6c0.1,0.4,0.4,0.8,0.7,1.1l0,0l0,0l0,0l0,0c0.3-2.5,1.6-4.7,3.6-6.2c2.1-1.5,4.4-2.2,6.9-1.9c1.6,0.3,3,0.8,4.4,1.9
	c2.6,2.1,4.1,5.4,3.6,8.7c0,0.6-0.6,0.8-1,0.8c-0.6,0-0.8-0.6-0.7-1c0.4-2.8-0.7-5.4-2.9-7c-1-0.7-2.2-1.4-3.5-1.5
	c-2.1-0.3-4,0.3-5.5,1.5c-1.5,1-2.3,2.6-2.8,4.3l-0.1,0.4v0.4v0.1c-0.1,0.6-0.6,1.1-1.4,1.4c-0.6,0.1-1.4,0.1-1.9-0.3
	c-0.7-0.6-1.1-1.4-1.5-2.2l-0.1-0.4l-0.6-3.7l-0.6-3.5l-0.1-0.4c-0.1-1-0.6-2.1-1.5-2.6c-0.8-0.7-1.9-0.8-2.9-0.7
	c-1.8,0.3-3,1.6-3.2,3.3c-0.1,1.6,0.6,3.2,2.1,4c0.1,0,0.3,0.1,0.4,0.1h0.1c0.1,0,0.4,0.1,0.6,0.3c0.3,0.4,0.3,0.8-0.1,1.1
	c-1.9,1.9-2.9,4.4-2.9,7s1,5,2.8,6.9c1.8,1.9,4.3,2.9,6.7,3C22,37,25,35.4,27,32.8c0.3-0.4,0.8-0.4,1.4-0.1c0.4,0.3,0.4,0.8,0.1,1.4
	c-2.2,3-5.7,4.8-9.5,4.8h-0.4c-3-0.1-5.8-1.4-8-3.6C8.4,33,7.2,30.1,7.2,27c0-2.6,0.8-5.1,2.3-7.2h0.7l-0.1-0.1
	c-0.5-0.4-1-0.8-1.5-1.4L8.6,18l-0.1-0.3l-0.1-0.1H5.5c-0.1,0-0.4-0.1-0.6-0.1l-0.3-0.3v-0.1c-0.1-0.2-0.1-0.5-0.1-0.7v-0.1v-0.1
	l0.7-1.5c0.1-0.4,0.7-0.7,1.1-0.4c0.4,0.1,0.6,0.6,0.6,1v0.1v0.1H6.8h0.8v-0.1c0-0.3,0-0.4,0-0.7v-0.3v-0.3c0.1-1.4,0.7-2.5,1.6-3.3
	c0.8-0.8,2.1-1.5,3.2-1.6c1.5-0.1,2.9,0.1,4.1,1l0.1,0.1v-0.1c0.3-0.4,0.6-0.8,0.6-1.4V8.6V8.3c0-0.4-0.3-0.8-0.7-1
	c-0.4-0.1-1.1,0-1.6,0.4l-0.1,0.2c-0.4,0.4-1,0.7-1.6,0.7c-0.7,0-1.4-0.1-1.6-0.6l-0.1-0.3C11.2,7,10.9,6.9,10.8,7
	c-0.3,0.1-0.4,0.1-0.4,0.6V8c0,1.1-0.8,2.3-2.1,2.3H7.8H7.5c-0.1,0-0.3,0.1-0.3,0.3c-0.1,0.3,0,0.7,0.3,1l0.1,0.1
	c0.4,0.4,0.4,1,0,1.4c-0.1,0.1-0.4,0.3-0.7,0.3s-0.4-0.1-0.7-0.3c-0.6-0.7-1-1.9-0.6-3C5.8,9.4,6.2,9,6.8,8.8
	c0.3-0.1,0.4-0.1,0.7-0.1h0.3c0.1,0,0.3-0.1,0.3-0.1V8.4V8.3V8C8.1,6.6,8.4,5.9,9.6,5.3z M28.5,27.3c0.4-0.3,1-0.3,1.4,0.1
	c1,1.1,1.6,2.6,1.9,4.1c0.3,1.4,0.3,2.6,0,4c-0.1,0.4-0.4,0.7-0.8,0.7c-0.1,0-0.1,0-0.3,0c-0.4-0.1-0.8-0.6-0.7-1.1
	c0.4-2.1,0-4.5-1.5-6.5C28.1,28.2,28.1,27.6,28.5,27.3z M32,25c-0.4-0.3-1-0.3-1.4,0.1c-0.3,0.4-0.3,1,0.1,1.4
	c1.8,1.6,2.6,4,2.6,6.1c0,0.6,0.3,1,0.8,1l0,0c0.4,0,0.8-0.4,0.8-0.8c0.1-1.4-0.1-2.6-0.6-4C34.1,27.3,33.1,26,32,25z M14.5,25.7
	c0.6,0,0.8,0.4,0.8,0.8c0,2.2,1.8,4.1,4,4.1c1,0,2.1-0.4,2.8-1.1c0.4-0.3,1-0.3,1.4,0c0.3,0.4,0.3,1,0,1.4c-1,1-2.5,1.6-4,1.6
	c-3.2,0-5.8-2.6-5.8-5.9C13.6,26.2,14.1,25.7,14.5,25.7z M34.3,22.5c-0.4-0.3-1-0.3-1.4,0.1c-0.3,0.4-0.3,1,0.1,1.4
	c1.9,1.5,2.9,3.7,2.9,5.9c0,0.6,0.4,0.8,0.8,1h0.1H37c0.4-0.1,0.6-0.4,0.6-0.8c0-1.4-0.3-2.6-0.8-4C36.5,24.7,35.6,23.5,34.3,22.5z"
	/>
<rect class="st1" width="44" height="44"/>
</svg>
