<?xml version="1.0" encoding="utf-8"?>
<!-- Generator: Adobe Illustrator 24.1.2, SVG Export Plug-In . SVG Version: 6.00 Build 0)  -->
<svg version="1.1" id="Layer_1" xmlns="http://www.w3.org/2000/svg" xmlns:xlink="http://www.w3.org/1999/xlink" x="0px" y="0px"
	 viewBox="0 0 44 44" style="enable-background:new 0 0 44 44;" xml:space="preserve">
<style type="text/css">
	.st0{fill:#707070;}
	.st1{fill:none;}
</style>
<path class="st0" d="M30.8,10.9l-0.6-0.7l-0.1,0.1c-1.6-1-4.6-1.4-7.2-1.4V6.8l5.3-1.1C28.8,5.6,29,5,29,4.5
	c-0.1-0.5-0.6-0.8-1.2-0.8L21.6,5c-0.5,0.1-0.8,0.5-0.8,1v2.9c-2.2,0.1-8,0.6-8,3.3l0,0.3c0,0.1-0.1,0.2-0.1,0.4l2.9,25
	c0,0.3,0.1,0.6,0.3,0.7c0.2,0.2,2.6,1.8,6.1,1.8c3.6,0,6-1.7,6.1-1.8c0.2-0.2,0.3-0.5,0.3-0.7l3-25.5C31.4,12,31.4,11.5,30.8,10.9z
	 M15.7,18.9c0.1,0,0.2,0.1,0.2,0.1c0.4,0.2,0.9,0.5,1.8,0.5c1,0,1.7-0.5,2-0.7c0.1-0.1,0.2-0.1,0.3-0.2c0.2-0.1,0.3-0.2,0.6-0.2
	c0.5,0,0.6,0.1,0.9,0.4l0.1,0c0.1,0,0.2,0.1,0.2,0.1c0.4,0.2,0.9,0.5,1.8,0.5c1,0,1.7-0.5,2-0.7c0.1-0.1,0.2-0.1,0.3-0.2
	c0.2-0.1,0.3-0.2,0.6-0.2c0.6,0,1-0.5,1-1c0-0.6-0.5-1-1-1c-1.1,0-1.6,0.4-2,0.6l-0.1,0c-0.1,0.1-0.2,0.1-0.3,0.2
	c-0.2,0.1-0.3,0.2-0.6,0.2c-0.5,0-0.6-0.1-0.9-0.4l-0.1,0c-0.1,0-0.2-0.1-0.2-0.1c-0.4-0.2-0.9-0.5-1.8-0.5c-1,0-1.7,0.5-2,0.7
	c-0.1,0.1-0.2,0.1-0.3,0.2c-0.2,0.1-0.3,0.2-0.6,0.2c-0.5,0-0.6-0.1-0.9-0.4l-0.1,0c-0.1-0.1-0.2-0.1-0.3-0.2
	c-0.3-0.2-0.6-0.3-1-0.4l-0.3-2.2c2.2,0.9,5.6,1,7,1c1.2,0,2.2,0,3.2-0.1c0.3,0,0.5-0.1,0.7-0.3c0.2-0.2,0.3-0.6,0.2-0.9
	c0-0.3-0.1-0.5-0.3-0.7c-0.2-0.2-0.6-0.3-0.9-0.2c-1,0.1-2,0.1-3.1,0.1c-3.8,0-6.5-0.8-7-1.1c0.4-0.4,2.4-1.1,5.9-1.3v1
	c0,0.6,0.5,1,1,1c0.6,0,1-0.5,1-1v-1c4,0.1,5.9,0.9,6.4,1.5l0,0l-2.5,24.5c-0.5,0.3-2.1,1.2-4.5,1.2c-2.2,0-3.8-0.8-4.5-1.2l0,0
	L15.7,18.9C15.7,18.9,15.7,18.9,15.7,18.9z"/>
<rect class="st1" width="44" height="44"/>
</svg>
