<?xml version="1.0" encoding="utf-8"?>
<!-- Generator: Adobe Illustrator 24.1.2, SVG Export Plug-In . SVG Version: 6.00 Build 0)  -->
<svg version="1.1" xmlns="http://www.w3.org/2000/svg" xmlns:xlink="http://www.w3.org/1999/xlink" x="0px" y="0px"
	 viewBox="0 0 44 44" style="enable-background:new 0 0 44 44;" xml:space="preserve">
<style type="text/css">
	.st0{display:none;}
	.st1{fill-rule:evenodd;clip-rule:evenodd;fill:#707070;}
	.st2{fill:none;}
</style>
<g id="Layer_2" class="st0">
	<image style="display:inline;overflow:visible;" width="44" height="44" xlink:href="../../../img_src/Fries.png" >
	</image>
</g>
<g id="Layer_1">
	<path class="st1" d="M18,6.8c0,0.5-0.3,0.9-0.8,1c-0.5,0-0.9-0.3-1-0.8l-0.2-3.1c0-0.2,0-0.5,0.2-0.7c0.1-0.2,0.3-0.3,0.6-0.3
		l3.2-0.3c0.2,0,0.5,0,0.7,0.2C20.8,2.9,21,3.1,21,3.3l0.5,7c0,0.5-0.3,0.9-0.8,0.9c0,0,0,0-0.1,0c-0.5,0-0.9-0.3-0.9-0.8l-0.5-6.1
		l-1.4,0.1L18,6.8z M22.8,11.4C22.9,11.4,22.9,11.4,22.8,11.4c0.6,0,0.9-0.3,0.9-0.8l0.3-4.5h1.4l-0.1,1.8c0,0.5,0.3,0.9,0.8,0.9
		C26.7,8.8,27,8.5,27,8l0.1-2.8c0-0.2-0.1-0.5-0.2-0.7c-0.1-0.2-0.3-0.3-0.7-0.3L23,4.1c-0.5,0-0.9,0.3-0.9,0.8l-0.3,5.3
		C22,10.9,22.3,11.4,22.8,11.4z M30.5,20.7c-0.3-0.3-0.9-0.7-1.7-0.6c-1,0-1.6,0.6-2,1l-0.6-9.5h1.4l0.3,6.7c0,0.5,0.3,0.8,0.8,0.8
		c0.5,0.1,0.8-0.2,1-0.6l3.3-8.9l1.3,0.5L30.5,20.7z M35.8,8.7l-3-1.2c-0.2-0.1-0.5-0.1-0.7,0c-0.2,0.1-0.3,0.2-0.5,0.5l-2.1,5.5
		l-0.1-3.1c0-0.5-0.5-0.9-0.9-0.9l-3.2,0.1c-0.2,0-0.5,0.1-0.7,0.3c-0.1,0.2-0.2,0.5-0.2,0.7L25,21.3c-0.5-0.5-1-1-2.1-1
		c0,0,0,0-0.1,0c-0.9,0-1.4,0.5-1.8,0.8v-7.2h1.2v4.8c0,0.5,0.5,0.9,0.9,0.9c0.5,0,0.9-0.5,0.9-0.9v-5.8c0-0.5-0.5-0.9-0.9-0.9h-3
		c-0.5,0-0.9,0.5-0.9,0.9v8.7l0,0l0,0l0,0c-0.5-0.5-1-1.2-2.2-1.2c0,0,0,0-0.1,0c-1.2,0-1.7,0.7-2.2,1.3l0,0
		c-0.3,0.5-0.5,0.6-0.8,0.6l0,0c-0.2,0-0.3-0.1-0.8-0.6c-0.1-0.1-0.1-0.1-0.2-0.2l0,0l0,0l-3.7-12l1.6-0.5l2.8,8.2
		c0.1,0.5,0.6,0.7,0.9,0.6c0.5,0,0.8-0.3,0.8-0.8l0.5-6.6l1.3,0.1l-0.6,8.5c0,0.5,0.3,0.9,0.8,0.9c0.5,0,0.9-0.3,0.9-0.8l0.7-9.4
		c0-0.5-0.3-0.9-0.8-0.9l-3.1-0.2c-0.5,0-0.9,0.3-0.9,0.8l-0.2,2.9l-1.6-4.7C12,7.1,11.4,6.9,10.9,7L7.7,8C7.5,8.1,7.3,8.3,7.1,8.5
		C7,8.7,7,8.9,7.1,9.2l3.8,11.3l0,0l0,0c-0.7,0.1-1,0.5-1.2,0.8c-0.2,0.5-0.2,0.9-0.2,1.2l3.7,18.4c0.1,0.5,0.5,0.7,0.9,0.7h13.7
		c0.5,0,0.8-0.3,0.9-0.7l3.5-15.4c0.1-0.5-0.2-0.9-0.7-1c-0.5-0.1-0.9,0.2-1,0.7l-3.2,14.7H14.9l-3.5-17.5c0.1,0,0.2,0,0.6,0.5l0,0
		c0.5,0.5,1,1.2,2.2,1.2s1.7-0.7,2.2-1.3c0.3-0.5,0.5-0.6,0.8-0.6c0.3,0,0.5,0.1,0.8,0.6l0,0c0.5,0.5,1,1.2,2.2,1.2l0,0
		c0,0,0,0,0.1,0c1.2,0,1.7-0.7,2.2-1.3l0,0c0.3-0.5,0.5-0.6,0.8-0.6c0.3,0,0.5,0.1,0.8,0.6l0,0l0,0c0.5,0.5,1,1.2,2.2,1.2l0,0
		c0,0,0,0,0.1,0c1.2,0,1.7-0.7,2.2-1.3c0.3-0.5,0.5-0.6,0.8-0.6s0.5,0.1,0.8,0.6l0,0c0.5,0.5,1,1.2,2.2,1.2l0,0c0,0,0,0,0.1,0
		c0.5,0,0.9-0.5,0.9-0.9c0-0.5-0.3-0.7-0.7-0.8l4.3-12C36.5,9.4,36.2,8.8,35.8,8.7z"/>
	<rect class="st2" width="44" height="44"/>
</g>
</svg>
