<?xml version="1.0" encoding="utf-8"?>
<!-- Generator: Adobe Illustrator 24.1.2, SVG Export Plug-In . SVG Version: 6.00 Build 0)  -->
<svg version="1.1" id="Layer_1" xmlns="http://www.w3.org/2000/svg" xmlns:xlink="http://www.w3.org/1999/xlink" x="0px" y="0px"
	 viewBox="0 0 44 44" style="enable-background:new 0 0 44 44;" xml:space="preserve">
<style type="text/css">
	.st0{fill-rule:evenodd;clip-rule:evenodd;fill:#418613;}
	.st1{fill:none;}
</style>
<path class="st0" d="M22.1,39.5c1.9,0,3.4-1.5,3.4-3.2V7.6c0-1.7-1.5-3.2-3.4-3.2h-0.3c-1.9,0-3.4,1.5-3.4,3.2v28.7
	c0,1.7,1.5,3.2,3.4,3.2H22.1z M21.9,2.8h0.3c2.8,0,5.2,2.1,5.2,4.9v28.7c0,2.7-2.4,4.9-5.2,4.9h-0.3c-2.8,0-5.2-2.1-5.2-4.9V7.6
	C16.6,4.9,18.9,2.8,21.9,2.8z M12.4,31.8c0.2,0,1-0.2,1-1V13.2c0-0.8-0.8-1-1-1c-0.1,0-0.1,0-0.2,0c-0.5,0-0.9,0.2-1.1,0.8
	c-1.1,2.8-1.1,15.4,0,18.2C11.1,31.7,11.8,31.8,12.4,31.8z M9.2,12.3c0.6-1.4,1.9-2,3.5-1.8c1.5,0.2,2.5,1.4,2.5,2.7v17.6
	c0,1.4-1,2.5-2.5,2.7c-0.2,0-0.3,0-0.6,0c-1.2,0-2.4-0.7-2.8-1.8C8,28.4,8,15.4,9.2,12.3z M33.1,31c-0.2,0.7-0.9,0.8-1.5,0.7
	c-0.2,0-1-0.2-1-1V13.2c0-0.8,0.8-1,1-1c0.1,0,0.1,0,0.2,0c0.5,0,0.9,0.2,1.1,0.8C34.2,15.7,34.2,28.2,33.1,31z M34.8,12.3
	c-0.6-1.4-1.9-2-3.5-1.8c-1.5,0.2-2.5,1.4-2.5,2.7v17.6c0,1.4,1,2.5,2.5,2.7c0.2,0,0.3,0,0.6,0c1.2,0,2.4-0.7,2.8-1.8
	C36,28.4,36,15.4,34.8,12.3z M24,9.9c0,1.1-0.8,1.7-1.4,2.1c-0.6,0.3-0.7,0.6-0.7,0.8s0.1,0.5,0.7,0.8l0,0c0.6,0.5,1.4,1,1.4,2.1
	c0,1.1-0.8,1.7-1.4,2.1c-0.6,0.3-0.7,0.6-0.7,0.8c0,0.3,0.1,0.5,0.7,0.8l0,0c0.6,0.5,1.4,1,1.4,2.1s-0.8,1.7-1.4,2.1
	c-0.6,0.5-0.7,0.6-0.7,0.8c0,0.3,0.1,0.5,0.7,0.8c0.6,0.3,1.4,1,1.4,2.1s-0.8,1.7-1.4,2.1C22.1,30,22,30.3,22,30.5
	c0,0.3,0.1,0.5,0.7,0.8c0.6,0.3,1.4,1,1.4,2.1c0,1.1-0.8,1.7-1.4,2.1c-0.6,0.3-0.7,0.6-0.7,0.8c0,0.5-0.5,0.9-0.9,0.9
	s-0.9-0.3-0.9-0.9c0-1.1,0.8-1.7,1.4-2.1c0.6-0.3,0.7-0.6,0.7-0.8s-0.1-0.5-0.7-0.8l0,0c-0.6-0.3-1.4-1-1.4-2.1s0.8-1.7,1.4-2.1l0,0
	c0.6-0.3,0.7-0.6,0.7-0.8c0-0.3-0.1-0.5-0.7-0.8l0,0c-0.6-0.3-1.4-1-1.4-2.1s0.8-1.7,1.4-2.1l0,0c0.6-0.3,0.7-0.6,0.7-0.8
	c0-0.3-0.1-0.5-0.7-0.8l0,0c-0.6-0.3-1.4-1-1.4-2.1s0.8-1.7,1.4-2.1l0,0c0.6-0.3,0.7-0.6,0.7-0.8c0-0.3-0.1-0.5-0.7-0.8l0,0
	c-0.6-0.3-1.4-1-1.4-2.1s0.8-1.7,1.4-2.1l0,0c0.6-0.3,0.7-0.6,0.7-0.8s-0.1-0.5-0.7-0.8l0,0c-0.6-0.3-1.4-1-1.4-2.1
	c0-0.5,0.5-0.9,0.9-0.9C21.5,6.2,22,6.5,22,7c0,0.2,0.1,0.5,0.7,0.8C23.1,8.2,24,8.8,24,9.9z"/>
<rect class="st1" width="44" height="44"/>
</svg>
