<?xml version="1.0" encoding="utf-8"?>
<!-- Generator: Adobe Illustrator 24.1.2, SVG Export Plug-In . SVG Version: 6.00 Build 0)  -->
<svg version="1.1" id="Layer_1" xmlns="http://www.w3.org/2000/svg" xmlns:xlink="http://www.w3.org/1999/xlink" x="0px" y="0px"
	 viewBox="0 0 44 44" style="enable-background:new 0 0 44 44;" xml:space="preserve">
<style type="text/css">
	.st0{fill-rule:evenodd;clip-rule:evenodd;fill:#707070;}
	.st1{fill:none;}
</style>
<path class="st0" d="M29.2,19.8C29.1,20,29,20.1,29,20.1c-0.1,0.1-0.2,0.5-0.2,0.6l0,0H15.2l0,0c0-0.1-0.1-0.5-0.2-0.6
	s-0.1-0.2-0.2-0.2c-0.5-0.5-0.7-0.7-0.7-1.5l0,0c1.1,0,1.9-0.7,2.5-1.2s0.8-0.8,1.2-0.8s0.7,0.1,1.1,0.6c0.7,0.6,1.5,1.2,3.1,1.2
	s2.4-0.7,3.1-1.2c0.5-0.5,0.7-0.6,1.1-0.6c0.5,0,0.8,0.2,1.2,0.8c0.6,0.6,1.4,1.2,2.5,1.2l0,0C30,19.2,29.7,19.5,29.2,19.8
	C29.1,20,29.2,19.8,29.2,19.8z M26.4,25.5c-0.2,0.5-0.5,1.2-0.6,3.2c-0.5,3.1-1.4,11-3.9,11s-3.4-7.9-3.9-11
	c-0.2-1.9-0.5-2.7-0.6-3.2c-0.6-0.9-1.8-1.8-2.4-2.2v-0.7h13.6v0.7C28.1,23.7,27,24.5,26.4,25.5C26.1,25.9,26.4,25.5,26.4,25.5z
	 M14.1,13.7c0.6-0.6,1.2-0.9,1.2-1.8v-1.7c0-3.3,3.5-5.8,6.7-5.8s6.7,2.5,6.7,5.8v1.7c0,0.7,0.6,1.2,1.2,1.8
	c0.7,0.6,1.2,0.9,1.2,1.5c0,0.7-0.2,1.5-1.2,1.5c-0.5,0-0.7-0.2-1.2-0.7c-0.6-0.6-1.4-1.4-2.6-1.4c-1.1,0-1.8,0.6-2.4,1.1
	c-0.6,0.5-0.9,0.8-1.8,0.8c-0.9,0-1.2-0.5-1.8-0.8c-0.6-0.5-1.2-1.1-2.4-1.1c-1.2,0-1.9,0.7-2.6,1.4c-0.6,0.5-0.8,0.7-1.2,0.7
	c-0.9,0-1.2-0.8-1.2-1.5C12.8,14.6,13.4,14.3,14.1,13.7C14.6,13.2,14.1,13.7,14.1,13.7z M33,15.2c0-1.4-1.1-2.2-1.8-2.8
	c-0.1-0.1-0.6-0.5-0.6-0.6v-1.7c0-4-4-7.4-8.6-7.4c-4.5,0-8.6,3.4-8.6,7.4v1.7c-0.1,0.1-0.5,0.5-0.6,0.6c-0.7,0.7-1.8,1.5-1.8,2.8
	c0,1.1,0.6,2,1.4,2.7c-0.5,1.8,0.6,2.6,1.1,3.2l0,0v2.6c0,0.2,0.1,0.6,0.5,0.7c0.5,0.2,1.8,1.1,2.2,1.8c0.1,0.2,0.2,1.5,0.5,2.6
	c0.6,5,1.4,12.5,5.4,12.5s5-7.6,5.7-12.5c0.1-1.1,0.2-2.4,0.5-2.5c0.5-0.7,1.7-1.5,2.2-1.8c0.2-0.1,0.5-0.5,0.5-0.7v-2.6l0,0
	c0.6-0.6,1.5-1.4,1.1-3.2C32.4,17.4,33,16.4,33,15.2C33,13.8,33,15.2,33,15.2z"/>
<rect class="st1" width="44" height="44"/>
</svg>
