<?xml version="1.0" encoding="utf-8"?>
<!-- Generator: Adobe Illustrator 24.1.2, SVG Export Plug-In . SVG Version: 6.00 Build 0)  -->
<svg version="1.1" id="Layer_1" xmlns="http://www.w3.org/2000/svg" xmlns:xlink="http://www.w3.org/1999/xlink" x="0px" y="0px"
	 viewBox="0 0 32 32" style="enable-background:new 0 0 32 32;" xml:space="preserve">
<style type="text/css">
	.st0{fill:#ACACAC;}
	.st1{fill:#FFFFFF;}
</style>
<circle class="st0" cx="16" cy="16" r="16"/>
<g>
	<path class="st1" d="M13,18.4h-1.2H9c-1.3,0-2.4-1.1-2.4-2.4s1.1-2.4,2.4-2.4h4h1.8c0.7,0,1.3,0.3,1.7,0.7c0.2,0.2,0.3,0.3,0.4,0.5
		l0,0c0,0.1,0.1,0.1,0.1,0.2l0,0c0,0.1,0,0.1,0.1,0.2c0,0,0,0,0,0.1s0,0.1,0,0.2v0.1v0.1c0,0.1,0,0.2,0,0.2c0,0.1,0,0.2,0,0.2
		c0,0.1,0,0.1,0,0.2c0,0,0,0,0,0.1s0,0.1,0,0.2l0,0c0,0.1,0,0.1-0.1,0.2c-0.1,0.3-0.3,0.6-0.5,0.8c0.2,0.1,0.4,0.1,0.6,0.1h1.5
		c0.1-0.3,0.2-0.6,0.3-0.9l0,0v-0.1v-0.1v-0.1v-0.1c0-0.1,0-0.1,0-0.2c0,0,0,0,0-0.1s0-0.2,0-0.2c0-0.1,0-0.2,0-0.2s0,0,0-0.1
		s0-0.1,0-0.2c0,0,0,0,0-0.1s0-0.1,0-0.2c0,0,0,0,0-0.1s0-0.1,0-0.2c0,0,0,0,0-0.1s0-0.1,0-0.2c0,0,0,0,0-0.1s0-0.1-0.1-0.2l0,0
		c0-0.1,0-0.1-0.1-0.2l0,0c-0.6-1.5-2.2-2.6-3.9-2.6H9c-2.3,0-4.2,1.9-4.2,4.2s1.9,4.2,4.2,4.2h2.8h3l0,0
		C14.1,19.8,13.4,19.2,13,18.4z"/>
	<path class="st1" d="M23,11.8h-2.9h-2.9l0,0c0.8,0.4,1.4,1.1,1.9,1.8h1.1H23c1.3,0,2.4,1.1,2.4,2.4s-1.1,2.4-2.4,2.4h-4h-1.8
		c-0.7,0-1.3-0.3-1.7-0.7l0,0c-0.2-0.2-0.3-0.3-0.4-0.5l0,0c0-0.1-0.1-0.1-0.1-0.2l0,0c0-0.1,0-0.1-0.1-0.2c0,0,0,0,0-0.1
		s0-0.1,0-0.2v-0.1v-0.1c0-0.1,0-0.2,0-0.2c0-0.1,0-0.2,0-0.2c0-0.1,0-0.1,0-0.2l0,0c0-0.1,0-0.1,0-0.2l0,0c0-0.1,0-0.1,0.1-0.2
		c0.1-0.3,0.3-0.6,0.5-0.8c-0.2-0.1-0.4-0.1-0.6-0.1h-1.5c-0.1,0.3-0.2,0.6-0.3,0.9l0,0v0.1v0.1v0.1v0.1c0,0.1,0,0.1,0,0.2
		c0,0,0,0,0,0.1s0,0.2,0,0.2c0,0.1,0,0.2,0,0.2s0,0,0,0.1s0,0.1,0,0.2c0,0,0,0,0,0.1s0,0.1,0,0.2c0,0,0,0,0,0.1s0,0.1,0,0.2
		c0,0,0,0,0,0.1s0,0.1,0,0.2c0,0,0,0,0,0.1s0,0.1,0.1,0.2l0,0c0,0.1,0,0.1,0.1,0.2l0,0c0.6,1.5,2.1,2.6,3.9,2.6l0,0l0,0H23
		c2.3,0,4.2-1.9,4.2-4.2C27.3,13.7,25.4,11.8,23,11.8z"/>
</g>
</svg>
