<?xml version="1.0" encoding="utf-8"?>
<!-- Generator: Adobe Illustrator 24.1.2, SVG Export Plug-In . SVG Version: 6.00 Build 0)  -->
<svg version="1.1" id="Layer_1" xmlns="http://www.w3.org/2000/svg" xmlns:xlink="http://www.w3.org/1999/xlink" x="0px" y="0px"
	 viewBox="0 0 32 32" style="enable-background:new 0 0 32 32;" xml:space="preserve">
<style type="text/css">
	.st0{fill-rule:evenodd;clip-rule:evenodd;fill:#ACACAC;}
</style>
<g id="_x35_._Logos__x26__Icons_x2F_2._Icons_x2F_5._Social_x2F_Facebook">
	<path id="Subtract" class="st0" d="M0,16.1C0,7.2,7.2,0,16,0s16,7.2,16,16.1c0,8-5.9,14.7-13.5,15.9V20.8h3.7l0.7-4.7l0,0l0,0h-4.4
		V13c0-1.3,0.7-2.5,2.7-2.5h2v-4l0,0l0,0c0,0-1.9-0.3-3.6-0.3c-3.6,0-6,2.3-6,6.3v3.6h-4v4.7l0,0l0,0h4V32l0,0l0,0
		C5.9,30.8,0,24.1,0,16.1z"/>
</g>
</svg>
