<?xml version="1.0" encoding="utf-8"?>
<!-- Generator: Adobe Illustrator 24.1.2, SVG Export Plug-In . SVG Version: 6.00 Build 0)  -->
<svg version="1.1" id="Layer_1" xmlns="http://www.w3.org/2000/svg" xmlns:xlink="http://www.w3.org/1999/xlink" x="0px" y="0px"
	 viewBox="0 0 32 32" style="enable-background:new 0 0 32 32;" xml:space="preserve">
<style type="text/css">
	.st0{fill-rule:evenodd;clip-rule:evenodd;fill:#FFFFFF;}
</style>
<path class="st0" d="M20.8,6.2C22,6.3,22.6,6.4,23,6.6c0.6,0.2,1,0.5,1.4,0.9s0.7,0.8,0.9,1.4c0.2,0.4,0.4,1.1,0.4,2.2
	c0.1,1.3,0.1,1.6,0.1,4.8s0,3.6-0.1,4.8s-0.2,1.8-0.4,2.2c-0.2,0.6-0.5,1-0.9,1.4S23.6,25,23,25.2c-0.4,0.2-1.1,0.4-2.2,0.4
	c-1.3,0.1-1.6,0.1-4.8,0.1s-3.6,0-4.8-0.1S9.4,25.4,9,25.2c-0.6-0.2-1-0.5-1.4-0.9s-0.7-0.8-0.9-1.4c-0.2-0.4-0.4-1.1-0.4-2.2
	c-0.1-1.3-0.1-1.6-0.1-4.8s0-3.6,0.1-4.8c0-1.1,0.2-1.8,0.3-2.2c0.2-0.6,0.5-1,0.9-1.4C8,7.1,8.4,6.9,8.9,6.6
	c0.4-0.2,1.1-0.4,2.2-0.4c1.3-0.1,1.6-0.1,4.8-0.1C19.2,6.2,19.6,6.2,20.8,6.2z M11.1,4.1c-1.3,0-2.2,0.2-3,0.5C7.4,4.9,6.7,5.3,6,6
	S4.9,7.4,4.6,8.1C4.3,8.9,4.1,9.7,4,11c0,1.3,0,1.7,0,5s0,3.7,0.1,4.9c0.1,1.3,0.3,2.1,0.6,2.9C4.9,24.6,5.3,25.3,6,26
	s1.3,1.1,2.1,1.4S9.7,27.9,11,28c1.3,0,1.7,0,5,0s3.7,0,4.9-0.1c1.3-0.1,2.1-0.3,2.9-0.6c0.8-0.3,1.5-0.7,2.1-1.4
	c0.7-0.7,1.1-1.3,1.4-2.1c0.3-0.8,0.5-1.6,0.6-2.9C28,19.7,28,19.3,28,16s0-3.7-0.1-4.9c-0.1-1.3-0.3-2.1-0.6-2.9
	C27.1,7.4,26.7,6.7,26,6s-1.3-1.1-2.1-1.4C23.1,4.3,22.3,4.1,21,4c-1.3,0-1.7,0-5,0S12.3,4,11.1,4.1z M9.8,16c0,3.4,2.8,6.2,6.2,6.2
	s6.2-2.8,6.2-6.2S19.4,9.8,16,9.8S9.8,12.6,9.8,16z M12,16c0-2.2,1.8-4,4-4s4,1.8,4,4s-1.8,4-4,4S12,18.2,12,16z M22.4,11
	c-0.8,0-1.4-0.6-1.4-1.4c0-0.8,0.6-1.4,1.4-1.4s1.4,0.6,1.4,1.4S23.2,11,22.4,11z"/>
</svg>
