<?xml version="1.0" encoding="utf-8"?>
<!-- Generator: Adobe Illustrator 24.1.2, SVG Export Plug-In . SVG Version: 6.00 Build 0)  -->
<svg version="1.1" id="Layer_1" xmlns="http://www.w3.org/2000/svg" xmlns:xlink="http://www.w3.org/1999/xlink" x="0px" y="0px"
	 viewBox="0 0 32 32" style="enable-background:new 0 0 32 32;" xml:space="preserve">
<style type="text/css">
	.st0{fill:none;}
	.st1{fill:#FFFFFF;}
</style>
<rect class="st0" width="32" height="32"/>
<path class="st1" d="M29.5,10.6c0,0-0.3-1.9-1.1-2.7c-1-1-2.2-1-2.8-1.1C21.8,6.5,16,6.5,16,6.5l0,0c0,0-5.8,0-9.6,0.3
	C5.8,6.9,4.6,6.9,3.6,7.9c-0.9,0.9-1,2.7-1,2.7S2.2,12.8,2.2,15V17c0,2.2,0.3,4.4,0.3,4.4s0.3,1.9,1,2.7c1,1,2.5,1,3,1.1
	c2.3,0.2,9.4,0.3,9.4,0.3s5.8,0,9.6-0.3c0.6-0.1,1.7-0.1,2.8-1.1c0.9-0.9,1.1-2.7,1.1-2.7s0.3-2.2,0.3-4.4V15
	C29.8,12.8,29.5,10.6,29.5,10.6z M13.1,19.5v-7.6l7.4,3.8L13.1,19.5z"/>
</svg>
