<?xml version="1.0" encoding="utf-8"?>
<!-- Generator: Adobe Illustrator 24.1.2, SVG Export Plug-In . SVG Version: 6.00 Build 0)  -->
<svg version="1.1" id="Layer_1" xmlns="http://www.w3.org/2000/svg" xmlns:xlink="http://www.w3.org/1999/xlink" x="0px" y="0px"
	 viewBox="0 0 32 33" style="enable-background:new 0 0 32 33;" xml:space="preserve">
<style type="text/css">
	.st0{fill-rule:evenodd;clip-rule:evenodd;fill:#FFFFFF;}
</style>
<path class="st0" d="M4,16.6C4,9.9,9.4,4.5,16,4.5c6.6,0,12,5.4,12,12.1c0,6-4.4,11-10.1,11.9v-8.4h2.8l0.5-3.5l0,0l0,0h-3.3v-2.3
	c0-1,0.5-1.9,2-1.9h1.5v-3l0,0v0c0,0-1.4-0.2-2.7-0.2c-2.7,0-4.5,1.7-4.5,4.7v2.7h-3v3.5l0,0v0h3v8.4c0,0,0,0,0,0l0,0
	C8.4,27.6,4,22.6,4,16.6z"/>
</svg>
