<?xml version="1.0" encoding="utf-8"?>
<!-- Generator: Adobe Illustrator 24.1.2, SVG Export Plug-In . SVG Version: 6.00 Build 0)  -->
<svg version="1.1" id="Layer_1" xmlns="http://www.w3.org/2000/svg" xmlns:xlink="http://www.w3.org/1999/xlink" x="0px" y="0px"
	 viewBox="0 0 54 54" style="enable-background:new 0 0 54 54;" xml:space="preserve">
<style type="text/css">
	.st0{fill:#FFFFFF;}
	.st1{fill:#020203;}
</style>
<circle class="st0" cx="27" cy="27" r="27"/>
<g id="_x35_._Logos__x26__Icons_x2F_2._Icons_x2F_1._Utility_x2F_Arrow_x2F_Right">
	<path id="Shape_10" class="st1" d="M31.2,21.3L31.2,21.3l4.6,5.1l0.1,0.1l0.1,0.1v0.1v0.1c0,0.1,0,0.2,0,0.2v0.1v0.1v0.1v0.1
		l-0.1,0.1l-0.1,0.1l-4.5,5c-0.4,0.4-1,0.4-1.4,0.1s-0.4-0.9-0.2-1.3l0.1-0.1l3-3.3H19c-0.6,0-1-0.4-1-1c0-0.5,0.4-0.9,0.9-1H19
		h13.8l-3-3.3c-0.4-0.4-0.3-1,0.1-1.4C30.2,21,30.7,21,31.2,21.3L31.2,21.3z"/>
</g>
</svg>
