<?xml version="1.0" encoding="utf-8"?>
<!-- Generator: Adobe Illustrator 24.1.2, SVG Export Plug-In . SVG Version: 6.00 Build 0)  -->
<svg version="1.1" id="Layer_1" xmlns="http://www.w3.org/2000/svg" xmlns:xlink="http://www.w3.org/1999/xlink" x="0px" y="0px"
	 viewBox="0 0 32 32" style="enable-background:new 0 0 32 32;" xml:space="preserve">
<style type="text/css">
	.st0{fill:#ACACAC;}
	.st1{fill:none;}
</style>
<g id="Layer_2_1_">
</g>
<g id="Layer_1_1_">
	<g id="_x35_._Logos__x26__Icons_x2F_2._Icons_x2F_5._Social_x2F_Twitter">
		<path id="path2" class="st0" d="M27.9,7.9c1.3-0.8,2.4-2,2.9-3.4c-1.3,0.7-2.7,1.2-4.1,1.5c-1.2-1.2-2.9-1.9-4.8-1.9
			c-3.6,0-6.5,2.7-6.5,6.2c0,0.3,0,0.9,0.1,1.3C10.1,11.2,5.4,8.9,2.1,5.2c-0.5,0.9-0.9,2-0.9,3c0,2.1,1.2,4,2.9,5
			c-1,0-2.1-0.2-2.9-0.8v0.1c0,2.9,2.2,5.4,5.4,5.8c-0.6,0.1-1,0.2-1.7,0.2c-0.3,0-0.8,0-1.2-0.1c0.8,2.4,3.1,4.1,6.2,4.3
			c-2.2,1.6-5,2.6-8.1,2.6c-0.6,0-1,0-1.6-0.1c2.9,1.7,6.4,2.7,10,2.7c12.1,0,18.6-9.2,18.6-17.1c0-0.2,0-0.6,0-0.8
			c1.3-0.8,2.4-1.9,3.4-3l0,0C30.5,7.4,29.2,7.7,27.9,7.9z"/>
	</g>
	<rect class="st1" width="32" height="32"/>
</g>
</svg>
