<?xml version="1.0" encoding="utf-8"?>
<!-- Generator: Adobe Illustrator 24.1.2, SVG Export Plug-In . SVG Version: 6.00 Build 0)  -->
<svg version="1.1" id="Layer_1" xmlns="http://www.w3.org/2000/svg" xmlns:xlink="http://www.w3.org/1999/xlink" x="0px" y="0px"
	 viewBox="0 0 32 32" style="enable-background:new 0 0 32 32;" xml:space="preserve">
<style type="text/css">
	.st0{fill:#707070;}
	.st1{fill:#ACACAC;}
	.st2{fill:none;}
</style>
<g>
	<polygon class="st0" points="12.6,12.4 11.8,15 13.5,15 13.5,15 	"/>
	<path class="st1" d="M16,1.3L16,1.3C7.1,1.3,0,6.9,0,13.9c0,4.5,3,8.5,7.5,10.6c-0.3,0.9-1.6,5.4-1.6,5.8c0,0,0,0.3,0.1,0.4
		s0.4,0,0.4,0c0.5-0.1,5.9-3.9,6.8-4.5c0.9,0.1,1.9,0.3,2.9,0.3c8.9,0,16-5.6,16-12.6C32,6.9,24.9,1.3,16,1.3z M8.1,17.4
		c0,0.5-0.4,0.9-0.9,0.9s-0.9-0.4-0.9-0.9v-5.5H4.8c-0.5,0-0.9-0.4-0.9-0.9s0.4-0.9,0.9-0.9h4.8c0.5,0,0.9,0.4,0.9,0.9
		s-0.4,0.9-0.9,0.9H8.1V17.4z M15.9,18.2c-0.1,0.1-0.4,0.1-0.6,0.1l0,0c-0.4,0-0.6-0.1-0.8-0.4L14,16.7h-2.9L10.6,18
		c-0.1,0.3-0.4,0.4-0.8,0.4c-0.3,0-0.4,0-0.6-0.1C9,18,8.8,17.7,9,16.9l2.3-5.8c0.1-0.5,0.6-0.9,1.3-0.9s1.1,0.5,1.3,0.9l2.3,5.8
		C16.4,17.7,16.1,18,15.9,18.2z M20.5,18.2h-3c-0.5,0-0.9-0.4-0.9-0.9V11c0-0.5,0.4-0.9,1-0.9s0.9,0.4,0.9,0.9v5.4h2
		c0.5,0,0.9,0.4,0.9,0.9S21,18.2,20.5,18.2z M27.8,17.4c0,0.3-0.1,0.5-0.4,0.6c-0.1,0.1-0.4,0.1-0.5,0.1c-0.3,0-0.6-0.1-0.8-0.4
		L24,14.9l-0.4,0.4v2c0,0.5-0.4,0.9-0.9,0.9l0,0c-0.5,0-0.9-0.4-0.9-0.9V11c0-0.5,0.4-0.9,0.9-0.9s0.9,0.4,0.9,0.9v2l2.6-2.6
		c0.1-0.1,0.4-0.3,0.5-0.3c0.3,0,0.5,0.1,0.6,0.3c0.1,0.1,0.3,0.4,0.3,0.6s0,0.4-0.3,0.5l-2.1,2.1l2.3,3
		C27.8,16.9,27.8,17.2,27.8,17.4z"/>
</g>
<rect class="st2" width="32" height="32"/>
</svg>
