<?xml version="1.0" encoding="utf-8"?>
<!-- Generator: Adobe Illustrator 16.0.0, SVG Export Plug-In . SVG Version: 6.00 Build 0)  -->
<!DOCTYPE svg PUBLIC "-//W3C//DTD SVG 1.1//EN" "http://www.w3.org/Graphics/SVG/1.1/DTD/svg11.dtd">
<svg version="1.1" id="Layer_1" xmlns="http://www.w3.org/2000/svg" xmlns:xlink="http://www.w3.org/1999/xlink" x="0px" y="0px"
	 width="1920px" height="600px" viewBox="0 0 1920 600" enable-background="new 0 0 1920 600" xml:space="preserve">
<g>
	<path fill="#6DB33E" d="M751.124,232.423l430.21-146.979c26.142-8.931,36.778-35.021,26.514-65.066
		c-9.82-28.744-41.417-67.484-100.68-89.771c-43.604-16.277-116.51-28.62-216.936,5.69S739.693,24.978,715.164,64.533
		c-33.355,53.93-34.643,103.905-24.823,132.649C700.606,227.227,724.982,241.354,751.124,232.423z M741.971,81.133
		c21.795-35.186,66.891-83.749,158.445-115.028c91.555-31.279,156.938-20.462,195.588-5.927
		c49.074,18.371,74.882,49.446,82.035,70.383c4.607,13.484,2.338,21.921-6.889,25.073l-430.21,146.98
		c-9.226,3.152-16.183-2.132-20.791-15.617C712.997,166.061,714.436,125.809,741.971,81.133z"/>
	<path fill="#6DB33E" d="M1180,475.75H740.5c-25.5,0-52,16-53.375,46.625c-0.75,17.25,1.75,41.5,18.375,58.875
		C717.375,593.75,734,600,754.75,600h411c20.875,0,37.375-6.25,49.25-18.75c16.625-17.375,19.125-41.625,18.375-58.875
		C1231.875,491.875,1205.375,475.75,1180,475.75z M1192.25,559.5c-5.75,6.125-14.5,9-26.5,9h-411c-12,0-20.75-3-26.5-9
		c-9.375-9.75-10.125-26.5-9.625-35.625c0.75-16.375,21.125-16.5,22-16.5H1180c0.875,0,21.125,0.125,21.875,16.5
		C1202.25,533,1201.625,549.625,1192.25,559.5z"/>
	<path fill="#6DB33E" d="M1209.069,195.75c-8.7,1.75-13.264-1.285-22.71-8.31c-10.5-7.833-24.877-18.457-47.254-13.7
		c-22.671,4.56-31.822,19.917-38.502,31.078c-6.118,10.156-9.152,14.719-17.731,16.444c-8.577,1.726-13.141-1.31-22.587-8.334
		c-10.476-7.71-24.853-18.334-47.402-13.798c-22.548,4.536-31.699,19.892-38.379,31.054c-5.995,10.131-9.029,14.694-17.608,16.419
		c-8.578,1.725-13.141-1.31-22.586-8.334c-10.477-7.71-24.854-18.334-47.402-13.799c-22.67,4.561-31.822,19.917-38.502,31.078
		c-5.995,10.131-9.03,14.694-17.608,16.42c-8.578,1.726-13.142-1.31-22.587-8.334c-10.477-7.71-24.854-18.333-47.402-13.798
		c-22.548,4.536-31.7,19.892-38.38,31.053c-5.995,10.131-9.03,14.695-17.607,16.419c-8.578,1.726-14.036,10.091-12.335,18.547
		c1.726,8.578,10.091,14.036,18.547,12.335c22.548-4.535,31.7-19.892,38.379-31.053c5.995-10.132,9.03-14.695,17.608-16.42
		c8.578-1.726,13.142,1.31,22.587,8.334c10.477,7.711,24.854,18.334,47.402,13.799c22.548-4.536,31.699-19.892,38.38-31.054
		c5.995-10.131,9.03-14.694,17.607-16.419c8.579-1.726,13.142,1.309,22.587,8.334c10.599,7.686,24.976,18.31,47.524,13.774
		c22.549-4.536,31.7-19.892,38.38-31.053c5.995-10.131,9.03-14.694,17.608-16.42c8.578-1.725,13.142,1.31,22.588,8.334
		c10.476,7.711,24.853,18.334,47.4,13.798c22.549-4.536,31.699-19.892,38.38-31.053l-0.024-0.123
		c6.118-10.156,9.029-14.694,17.731-16.444c8.7-1.75,13.264,1.285,22.708,8.31c10.478,7.71,24.854,18.334,47.402,13.798
		c8.578-1.725,14.061-9.968,12.336-18.546C1225.891,199.507,1217.525,194.05,1209.069,195.75z"/>
	<path fill="#6DB33E" d="M728.125,444.625H1187.5c23.875,0,43.25-19.375,43.125-43.25v-7.125c0-23.875-19.375-43.25-43.125-43.25
		H728.125C704.375,351,685,370.375,685,394.25v7.125C685,425.25,704.375,444.625,728.125,444.625z M716.375,394.375
		c0-6.5,5.25-11.75,11.75-11.75H1187.5c6.5,0,11.75,5.25,11.75,11.75v7.125c0,6.5-5.25,11.75-11.75,11.75H728.125
		c-6.5,0-11.75-5.25-11.75-11.75V394.375z"/>
</g>
</svg>
