<?xml version="1.0" encoding="utf-8"?>
<!-- Generator: Adobe Illustrator 24.1.2, SVG Export Plug-In . SVG Version: 6.00 Build 0)  -->
<svg version="1.1" id="Layer_1" xmlns="http://www.w3.org/2000/svg" xmlns:xlink="http://www.w3.org/1999/xlink" x="0px" y="0px"
	 viewBox="0 0 44 44" style="enable-background:new 0 0 44 44;" xml:space="preserve">
<style type="text/css">
	.st0{fill-rule:evenodd;clip-rule:evenodd;fill:#707070;}
	.st1{fill:none;}
</style>
<g id="_x35_._Logos__x26__Icons_x2F_2._Icons_x2F_2._Menu_x2F_Pet_1_">
	<path id="Path_2_1_" class="st0" d="M9.3,34.9c-0.3,0-0.4-0.1-0.6-0.3c-0.3-0.3-0.3-0.9,0-1.3c0.3-0.1,0.6-0.6,0.4-1
		c0-0.3-0.3-0.6-0.7-0.6c-2.3-0.7-3.9-2.6-3.9-4.9c0-1.6,0.9-3.2,2.3-4.3C7,22.3,7,22.1,7,21.7c0-0.4,0-0.4-0.1-0.6
		c-1.6-1.2-2.3-2.8-2.3-4.3c0-1.3,0.6-2.6,1.4-3.6c1-1,2.2-1.6,3.6-1.6l0,0c2.8,0,5.1,2,5.1,4.5c0,0.4,0,0.9,1.9,0.9h10.9
		c1.9,0,1.9-0.6,1.9-0.9c0-2.5,2.3-4.5,5.1-4.5l0,0c1.3,0,2.6,0.6,3.6,1.6c1,1,1.4,2.3,1.4,3.6c0,1.6-0.9,3.2-2.3,4.3
		C37,21.2,37,21.2,37,21.7c0,0.4,0,0.4,0.1,0.7c1.6,1.2,2.3,2.8,2.3,4.3c0,1.3-0.6,2.6-1.4,3.6c-1,1-2.2,1.4-3.6,1.4l0,0
		c-2.8,0-5.1-2-5.1-4.5c0-0.4,0-0.9-1.9-0.9H16.6c-1.9,0-1.9,0.6-1.9,0.9c0,1-0.4,2-1.2,2.9c-0.3,0.4-0.9,0.4-1.2,0
		c-0.3-0.3-0.4-0.9,0-1.3c0.4-0.4,0.7-1,0.7-1.6c0-1.7,1.2-2.6,3.6-2.6h10.9c2.3,0,3.6,0.9,3.6,2.6c0,1.4,1.6,2.8,3.3,2.8l0,0
		c0.9,0,1.7-0.4,2.3-1c0.6-0.7,1-1.4,1-2.3c0-1.4-0.9-2.3-1.7-2.9c-0.9-0.7-0.9-1.4-0.9-2l0,0l0,0l0,0l0,0c0-0.6,0-1.3,0.9-2
		c0.7-0.6,1.7-1.6,1.7-2.9c0-0.9-0.3-1.7-1-2.3c-0.6-0.7-1.4-1-2.3-1l0,0c-1.7,0-3.3,1.3-3.3,2.8c0,1.7-1.2,2.6-3.6,2.6H16.7
		c-2.3,0-3.6-0.9-3.6-2.6c0-1.4-1.6-2.8-3.3-2.8l0,0c-0.9,0-1.7,0.3-2.3,1c-0.6,0.6-1,1.4-1,2.3c0,1.3,0.9,2.3,1.7,2.9
		C9,20.5,9,21.2,9,21.8l0,0l0,0l0,0l0,0c0,0.6,0,1.3-0.9,2c-0.7,0.6-1.7,1.6-1.7,2.9c0,1.4,1,2.8,2.6,3.2c1,0.3,1.7,1,1.9,1.9
		c0.1,0.6,0.1,1.6-0.9,2.8C9.7,34.7,9.5,34.9,9.3,34.9z"/>
</g>
<rect class="st1" width="44" height="44"/>
</svg>
